PathFileType	4	(X/Y/Z)	C:\Users\°ÂÌØÂü\Desktop\20210112\bx_y_0_901-Unnamed.trc
DataRate	CameraRate	NumFrames	NumMarkers	Units	OrigDataRate	OrigDataStartFrame	OrigNumFrames
50.00	50.00	       7	0	mm	50.00	58	       457
Frame#	Time	
		

58	1.140	-685.11676	-67.02628	1547.73047	-730.47620	292.71259	1527.32690	-620.23450	113.02830	1434.10730	-595.20740	0.86515	1047.88074	-591.14148	224.15157	1069.78137	-716.35907	79.29888	215.53795	-588.20929	0.23194	800.37012	-586.80652	220.84227	814.04553	-696.45331	274.30859	744.00256	-730.64587	251.57117	638.54254	-692.20087	145.91545	571.77954	-733.88464	247.30881	575.11420	-670.79810	22.22809	519.04816	-773.74445	255.45851	502.08249	-678.52191	208.19408	532.16803	-698.42230	-46.26605	715.64899	-663.32397	-66.16466	164.00703	-711.45294	151.99197	216.04544	-771.41870	221.65565	205.34964	-882.65887	295.90726	144.39078	-674.36780	57.02934	156.03343	-603.26453	20.36199	165.56068	-675.00861	171.57059	156.91200	-594.66815	222.81160	173.42720	-667.59045	299.09763	159.69273	-630.35846	307.38879	162.50572	-561.83856	262.75809	166.37698	-528.25732	304.23590	146.49107	-670.93628	131.53935	1851.30823	-517.66736	-72.72713	142.77681	-796.30243	171.65637	184.08562	-766.33667	-4.15345	207.72821	-794.56226	56.35308	175.04279	-796.01520	97.38036	1058.06079	-765.18109	-32.37891	487.70322	-559.97278	-40.18804	164.53656	-875.87164	-78.64655	141.31004	-647.17169	284.66891	876.73792				-708.54517	-25.52442	612.75281	-719.38123	-22.40243	566.71472	-622.52289	-77.13731	159.29903	-656.43658	-64.60132	855.68243	-694.15247	82.85094	571.08521	
59	1.160	-684.54755	-66.82566	1547.76306	-729.97729	292.87405	1527.26917	-619.99945	112.84537	1434.19434	-595.34357	0.95634	1047.89758	-591.21881	223.98683	1069.82263	-716.65198	79.60953	215.27403	-588.33044	0.18247	800.30188	-586.83411	220.72954	813.95886	-696.77783	274.49658	744.42084	-730.69751	251.58206	638.59998	-692.39685	145.97636	571.64478	-734.11993	247.06343	575.07568	-670.94196	22.28855	518.85394	-773.43622	255.22014	501.61649	-678.49579	208.57941	531.96088	-698.53766	-46.23240	715.49042	-663.39856	-66.19433	163.90695	-711.24890	152.10129	216.18277	-771.51501	221.83369	205.46536	-882.56555	296.14050	144.55247	-674.36780	57.02934	156.03343	-603.19452	20.41862	165.39279	-675.00861	171.57059	156.91200	-594.62909	222.69757	173.49992	-667.70056	299.09961	159.81689	-630.55725	307.48215	162.65594	-561.71759	262.78061	166.33339	-528.07855	304.32205	146.58138	-670.22272	131.40688	1851.35657	-517.67206	-72.82037	142.92558	-796.14606	171.65318	184.10307	-766.33167	-4.31812	207.67149	-794.51740	56.35526	175.11353	-796.14294	97.52064	1058.26819	-765.25085	-32.57896	487.72589	-559.76184	-40.16571	164.57191	-876.03320	-78.59757	141.50241	-647.23846	284.74271	876.67175				-708.37958	-25.30577	612.55029	-719.38818	-22.45086	566.64777	-622.59192	-77.18941	159.40489	-656.67584	-64.70552	855.80219	-694.15247	82.85094	571.08521	
60	1.180	-683.87012	-67.16138	1547.83301	-729.34131	292.85809	1527.58813	-619.35242	113.16808	1434.00012	-595.48663	0.99052	1047.82117	-591.17535	223.84691	1069.66443	-716.61401	79.37318	215.41045	-588.42462	0.23252	800.26727	-586.87311	220.74332	814.03320	-696.94946	274.36081	744.35400	-730.60547	251.49255	638.58618	-692.20087	145.91545	571.77954	-734.17578	247.02881	574.96454	-670.93054	22.38286	518.98364	-773.80322	255.41507	501.99191	-678.81732	208.13152	532.13153	-698.68268	-46.45133	715.45746	-663.32965	-66.25504	163.98123	-711.42188	151.85692	216.03172	-771.42169	221.63708	205.22322	-882.70691	296.05905	144.52444	-674.36780	57.02934	156.03343	-603.24219	20.47897	165.44325	-674.75311	171.51984	156.73325	-594.66815	222.81160	173.42720	-667.57239	299.07376	159.88080	-630.44757	307.36517	162.45264	-561.92059	262.93118	166.45453	-528.12634	304.18494	146.33830	-668.98145	131.70627	1851.21021	-517.72174	-72.61513	142.64165	-796.17719	171.55814	184.09599	-766.38879	-4.19380	207.69656	-794.51740	56.35526	175.11353	-796.43042	97.71271	1058.49304	-765.35931	-32.53310	487.74109	-559.74548	-40.13858	164.37810	-875.98657	-78.65415	141.42352	-647.37848	284.33960	876.63422				-708.54517	-25.52442	612.75281	-719.39020	-22.51574	566.74719	-622.52289	-77.13731	159.29903	-657.16608	-64.49883	855.60217	-694.18713	82.62713	571.33704	
61	1.200	-682.98926	-67.17393	1548.00684	-728.17657	292.79819	1527.44946	-618.41632	113.21791	1433.90955	-595.63245	1.05715	1047.83594	-591.33478	224.03703	1069.79382	-716.45020	79.42816	215.65895	-588.49237	0.22974	800.30756	-587.01190	220.69926	813.95508	-697.15283	274.44559	744.51794	-730.81439	251.51073	638.61383	-692.20087	145.91545	571.77954	-734.14911	247.08186	574.99695	-670.79187	22.15160	519.16876	-773.89423	255.51527	501.86615	-678.86493	208.00737	532.11768				-663.44250	-66.25086	163.96123	-711.39240	151.92715	216.10622	-771.33856	221.64407	205.25626	-882.62158	296.14899	144.58987	-674.36780	57.02934	156.03343	-603.17987	20.41547	165.43578	-675.00861	171.57059	156.91200	-594.62909	222.69757	173.49992	-667.63525	299.08530	159.95195	-630.36060	307.44885	162.53568	-561.90692	262.83340	166.37920	-528.11536	304.45233	146.53067	-667.89954	131.73289	1851.23267	-517.73676	-72.38290	142.52451	-796.33313	171.57442	184.11380	-766.38879	-4.19380	207.69656	-794.52985	56.27546	175.07535	-796.27350	97.49002	1058.41699	-765.45325	-32.59941	487.67615	-559.87958	-40.24665	164.45857	-876.02838	-78.54763	141.55200	-647.54889	284.36737	876.71960				-708.68060	-25.62629	612.80432	-719.50427	-22.47747	566.78363	-622.52289	-77.13731	159.29903	-657.25922	-64.69284	855.84393	-694.34656	82.81801	571.20068	
62	1.220	-682.09076	-66.97414	1547.87732	-727.51782	292.73706	1527.61902	-617.83386	113.28539	1434.21875	-595.72522	0.94570	1047.69177	-591.42358	223.93816	1069.73999	-716.57458	79.34895	215.53612	-588.57715	0.15372	800.26385	-587.44165	220.77968	814.02527	-697.15283	274.44559	744.51794	-731.07825	251.26711	638.33789	-692.39685	145.97636	571.64478	-734.14362	246.94179	575.25922	-670.93872	22.32301	519.14935	-773.85809	255.27303	502.01251	-679.03381	208.01022	532.04077				-663.45557	-66.30261	163.93188	-711.35449	151.95381	216.14171	-771.56140	221.79233	205.37907	-882.70190	296.12164	144.55148	-674.36780	57.02934	156.03343	-603.33636	20.53030	165.43542	-675.14783	171.61003	156.74400	-594.66815	222.81160	173.42720	-667.57239	299.07376	159.88080	-630.51550	307.39435	162.55081	-561.78760	262.79483	166.43941	-528.16980	304.08307	146.45369	-666.22076	131.67105	1851.27039	-517.66736	-72.72713	142.77681	-796.34528	171.61848	184.05481	-766.38879	-4.19380	207.69656	-794.51740	56.35526	175.11353	-796.44098	97.77525	1058.58655	-765.65057	-32.61105	487.71573	-559.94000	-40.28274	164.62172	-875.93170	-78.68814	141.17880	-647.92889	284.76465	876.57025				-709.04620	-25.96531	613.12488	-719.86047	-22.34909	566.92163	-622.45514	-77.46179	159.39571	-657.43402	-65.44288	856.13568	-694.59009	82.95959	571.26520	
63	1.240	-681.20422	-67.00351	1548.08582	-726.39496	292.42685	1527.75952	-617.39240	113.36459	1434.32581	-595.85120	0.98211	1047.66919	-591.54230	223.93857	1069.78149	-716.71442	79.34898	215.68544	-588.92084	-0.04890	800.18097	-587.53656	220.84059	814.00360	-697.25897	274.49216	744.60065	-731.32043	250.94499	638.07904	-692.55420	145.93210	571.77881	-734.16132	247.01823	575.18878	-671.06628	22.15025	519.16296	-774.03961	255.22383	501.77838	-679.03381	208.01022	532.04077				-663.45557	-66.30261	163.93188	-711.35449	151.95381	216.14171	-771.45172	221.50029	205.10789	-882.74536	296.02060	144.44994	-674.36780	57.02934	156.03343	-603.14880	20.37680	165.51080	-675.00861	171.57059	156.91200	-594.55786	222.64716	173.44054	-667.61450	299.03592	159.80505	-630.50751	307.55765	162.58311	-561.77460	262.74606	166.22829	-528.11536	304.45233	146.53067	-664.52698	131.79796	1851.28174	-517.64142	-72.96933	142.74449	-796.30243	171.65637	184.08562	-766.38629	-4.24386	207.64732	-794.52539	56.45309	174.94173	-796.58282	97.59554	1058.54993	-765.67426	-32.69845	487.77640	-559.86298	-40.23250	164.52863	-875.98657	-78.65415	141.42352	-647.97375	284.59113	876.39648				-709.16431	-26.05624	613.16742	-719.99854	-22.70004	567.02313	-622.64740	-77.32893	159.26514	-657.62207	-65.50851	855.85828	-694.85297	82.53159	571.45917	
64	1.260	-680.49933	-67.00307	1548.34705	-725.67084	292.58517	1528.03418	-616.41077	113.20868	1434.05566	-595.89301	0.95033	1047.60876	-591.61676	223.89267	1069.73975	-716.71442	79.34898	215.68544	-589.26428	-0.14761	800.16858	-587.77466	220.63309	813.96674	-697.33398	274.36090	744.50397	-731.66315	250.99054	638.15033	-692.97278	146.02991	571.72357	-734.30768	246.98157	574.99036	-671.36328	21.98774	519.26691	-774.12323	255.33612	501.95038	-679.10901	208.00809	532.09131	-699.67285	-46.35199	715.03925	-663.44250	-66.25086	163.96123	-711.42188	151.85692	216.03172	-771.34875	221.72276	205.32297	-882.65222	296.06091	144.49532	-674.60760	57.28833	156.14238	-603.21295	20.56555	165.25647	-675.04773	171.62137	156.88675	-594.62909	222.69757	173.49992	-667.58008	299.08713	159.77222	-630.52649	307.44479	162.40189	-561.78760	262.79483	166.43941	-528.26166	304.23529	146.29402	-662.88422	131.90224	1851.23145	-517.80188	-73.00368	142.40295	-796.34045	171.89146	184.11601	-766.33167	-4.31812	207.67149	-794.57965	56.50960	174.97401	-796.63098	97.57199	1058.78015	-765.99768	-32.86441	487.85196	-559.84985	-40.20319	164.66200	-875.87347	-78.77656	141.15236	-648.09723	284.66641	876.47119				-709.50598	-25.97489	613.12646	-720.32196	-22.41160	566.85284	-622.45514	-77.46179	159.39571	-657.87805	-65.37953	855.89972	-695.18530	82.67888	571.17285	
